<?xml version="1.0" encoding="UTF-8"?>
<svg version="1.1" viewBox="0 0 1520 330" xmlns="http://www.w3.org/2000/svg" xmlns:cc="http://creativecommons.org/ns#" xmlns:dc="http://purl.org/dc/elements/1.1/" xmlns:rdf="http://www.w3.org/1999/02/22-rdf-syntax-ns#">
<metadata>
<rdf:RDF>
<cc:Work rdf:about="">
<dc:format>image/svg+xml</dc:format>
<dc:type rdf:resource="http://purl.org/dc/dcmitype/StillImage"/>
<dc:title/>
</cc:Work>
</rdf:RDF>
</metadata>
<path d="m173.81 236.18-154.78-1.0364 24.025-45.964 103.97-0.54082-52.5-99.552c34.016-65.698 0 0 34.016-65.698l7.9838-0.2907c157.6 275.08 4.8423 9.247 157.6 275.08h-86.694l-33.633-62z" fill="#fff"/>
<path d="m334.03 23.18h79v275h-79z" fill="#fff"/>
<path d="m536.94 298.18c-20.82-2.8625-37.288-12.853-44.509-27.001-2.3346-4.5743-5.9907-15.767-5.9907-18.339 0-0.34673 7.2844-0.50678 16.187-0.35565l16.187 0.27477 0.81703 3c1.2138 4.4568 7.2584 12.128 11.831 15.014 6.6156 4.1762 14.923 5.7781 27.458 5.2944 9.2893-0.35841 11.882-0.83756 16.519-3.0524 9.5937-4.5826 13-8.7868 13-16.045 0-3.2656-0.61982-5.0885-2.3737-6.981-4.751-5.1264-9.0533-6.5537-40.126-13.312-31.028-6.7481-43.147-13.508-50.557-28.202-3.6221-7.1818-3.4147-17.78 0.49936-25.516 5.3639-10.602 15.98-18.143 31.558-22.418 5.24-1.438 10.377-1.7814 26.5-1.7718 17.945 0.0107 20.846 0.25263 28.233 2.355 19.231 5.4729 30.969 17.263 33.735 33.883l0.70734 4.25h-33.099l-1.0442-3.8778c-1.3373-4.9664-8.3711-11.554-14.192-13.292-6.7291-2.0093-26.165-1.719-32.841 0.49047-8.9628 2.9663-12.686 7.2113-11.565 13.187 0.63264 3.3723 4.3571 6.8843 9.8154 9.2556 3.6664 1.5928 15.185 4.4901 32.249 8.1117 31.297 6.6423 42.85 12.629 50.91 26.381 4.3755 7.4662 5.1106 21.985 1.5829 31.264-1.2648 3.3267-5.515 9.1356-9.4438 12.907-7.6802 7.373-20.087 12.395-35.871 14.52-8.9416 1.2038-27.331 1.1909-36.178-0.0254z" fill="#fff"/>
<path d="m986.27 158.53h33v139.65h-33z" fill="#fff" stroke-width="1.0096"/>
<path d="m1055.1 275.18h122v23h-122z" fill="#fff" stroke-width=".984"/>
<path d="m1250.3 181.97h-49v-23.445h132v23.445h-50v116.21h-33z" fill="#fff" stroke-width="1.0096"/>
<path d="m1399.3 238.84c-60.162-80.187-1-1.1468-60.412-80.187 9.9496-0.21449 17.329-0.12742 38.22-0.12742l39.72 54.717 38.925-54.717h37.559c-61.012 80.686-42.856 56.52-61.012 80.686v58.967h-33z" fill="#fff" stroke-width="1.0096"/>
<path d="m1055.1 215.97h84v23.912c-28 0.0361-56 0.0723-84 0.1084z" fill="#fff"/>
<path d="m1055.1 158.53h122v23h-122z" fill="#fff"/>
<path d="m718.13 158.88c-38.467-2.1e-4 -72.479 30.83-72.479 69.297-2.1e-4 38.467 34.012 70.004 72.479 70.004 38.466-8.7e-4 71.416-31.538 71.416-70.004 2.1e-4 -38.466-32.95-69.296-71.416-69.297zm-0.44336 24.219c25.043-2.9e-4 41.809 20.035 41.808 45.078-8e-4 25.042-16.766 45.608-41.808 45.607-25.041-7.9e-4 -43.22-20.566-43.22-45.607-2.9e-4 -25.042 18.178-45.077 43.22-45.078z" fill="#fff" stroke-width="1.0535"/>
<path d="m893.05 158c-39.804-2.1e-4 -74.996 30.83-74.996 69.297-2.2e-4 38.467 35.193 70.004 74.996 70.004 24.692-5.4e-4 47.166-12.149 60.686-30.549l-23.043-15.361-0.75977-0.2871c-7.1752 13.042-20.432 21.801-37.34 21.801-25.911-7.9e-4 -44.722-20.566-44.723-45.607-3e-4 -25.042 18.81-45.077 44.723-45.078 17.47-2e-4 31.034 9.1131 38.027 22.721l24.385-15.111c-13.353-19.184-36.476-31.828-61.955-31.828z" fill="#fff" stroke-width="1.0716"/>
</svg>
